<svg width="761" height="412" viewBox="0 0 761 412" fill="none" xmlns="http://www.w3.org/2000/svg">
<g id="logo">
<path id="text" fill-rule="evenodd" clip-rule="evenodd" d="M496.671 239.258C493.533 242.396 493.469 243.956 496.37 246.609C498.564 248.615 499.883 248.678 549.62 249.143C577.67 249.406 635.611 249.283 678.377 248.871C748.604 248.193 756.381 247.959 758.688 246.447C761.9 244.343 761.491 241.867 757.608 239.908C753.421 237.795 704.132 237.352 634.62 238.802C583.865 239.86 518.114 239.107 503.921 237.304C499.79 236.779 498.914 237.015 496.671 239.258ZM207.986 238.367C207.681 238.672 175.074 239.162 135.526 239.456C95.9776 239.75 59.7946 240.058 55.1196 240.141C50.4446 240.223 38.0556 239.91 27.5886 239.444L8.55757 238.598L4.33856 241.262C-0.0554404 244.036 -1.25943 247.51 1.40657 249.723C3.09357 251.124 -1.75043 251.09 102.12 250.434C215.18 249.72 262.809 248.739 265.87 247.062C268.691 245.517 268.751 242.781 266.017 240.305C264.073 238.544 261.815 238.378 236.227 238.106C220.999 237.945 208.291 238.062 207.986 238.367ZM413.62 248.583C396.675 250.746 369.823 252.9 353.124 253.436C341.85 253.797 331.838 254.516 330.874 255.032C328.162 256.483 328.773 258.808 332.87 262.622L336.62 266.113L350.62 265.575C358.32 265.279 372.495 263.877 382.12 262.458C401.004 259.675 428.382 254.971 428.939 254.414C429.57 253.784 427.063 249.9 426.026 249.9C425.463 249.9 425.28 249.45 425.62 248.9C426.228 247.916 420.107 247.754 413.62 248.583ZM279.35 264.433C272.817 266.593 267.044 273.874 258.95 290.166C254.786 298.545 250.428 307.537 249.263 310.15L247.146 314.9H235.462C226.126 314.9 223.42 315.224 221.999 316.509C220.311 318.037 220.274 317.926 221.276 314.296C222.836 308.649 221.801 302.126 218.882 299.208C211.955 292.28 199.901 296.776 189.095 310.318C186.604 313.44 184.058 315.707 183.349 315.434C181.544 314.742 178.123 318.471 178.105 321.15C178.091 323.323 176.022 330.279 174.164 334.4C170.681 342.125 168.841 349.127 168.737 355.056C168.634 360.939 168.968 362.207 171.62 365.973C174.915 370.652 179.124 372.701 185.692 372.824C192.754 372.956 199.592 370.016 210.465 362.173C216.56 357.778 218.805 351.587 215.797 347.473C213.916 344.901 209.013 346.192 204.5 350.449C202.527 352.309 199.948 354.133 198.767 354.503C197.586 354.873 195.547 356.013 194.235 357.038C191.133 359.46 185.027 359.455 182.029 357.027C179.829 355.246 179.781 354.94 181.045 350.777C181.776 348.37 183.329 344.487 184.495 342.15C186.219 338.696 187.131 337.9 189.364 337.9C192.762 337.9 203.534 334.307 207.758 331.764C209.484 330.725 212.859 327.324 215.258 324.207C219.6 318.564 219.622 318.551 219.95 321.469C220.132 323.081 221.223 325.412 222.374 326.65C224.245 328.659 225.425 328.9 233.411 328.9C241.452 328.9 242.303 329.076 241.85 330.65C241.574 331.612 240.118 336.45 238.615 341.4C230.308 368.754 227.438 398.174 232.527 403.798C234.891 406.409 236.172 406.433 239.359 403.927C241.327 402.378 242.005 400.709 242.504 396.177C242.854 392.999 243.11 389.725 243.073 388.9C242.494 376.051 245.042 359.123 249.17 348.4C249.594 347.3 251.145 342.465 252.617 337.655C254.09 332.845 255.718 328.648 256.236 328.328C256.754 328.008 258.852 327.589 260.899 327.397C262.945 327.205 267.32 326.567 270.62 325.98C273.92 325.392 278.223 324.909 280.181 324.906C286.306 324.896 289.936 319.766 286.828 315.515C285.765 314.062 283.496 313.657 274.078 313.238C267.776 312.958 262.504 312.614 262.361 312.473C261.759 311.875 268.159 299.054 269.24 298.693C269.892 298.476 270.499 297.296 270.589 296.071C270.838 292.696 275.104 285.948 280.009 281.173C283.344 277.925 285.175 276.9 287.636 276.9C291.228 276.9 292.524 278.061 293.501 282.15C294.08 284.571 294.627 284.9 298.082 284.9C302.614 284.9 305.12 282.288 305.12 277.563C305.12 273.699 300.348 265.107 297.743 264.28C294.289 263.184 282.84 263.279 279.35 264.433ZM115.437 275.539C114.059 277.643 113.696 280.536 113.651 289.789C113.621 296.175 112.984 303.875 112.236 306.9C109.74 317 107.765 323.381 106.511 325.4C105.827 326.5 104.564 330.145 103.705 333.501C102.846 336.857 101.497 341.148 100.707 343.037C99.9176 344.926 98.9576 350.756 98.5726 355.992C97.9696 364.209 98.1056 365.743 99.5686 367.206C102.795 370.433 105.601 369.298 112.04 362.164C115.384 358.459 118.12 355.064 118.12 354.62C118.12 354.175 121.045 350.218 124.62 345.826C128.195 341.434 131.12 337.389 131.12 336.837C131.12 335.653 148.099 318.9 149.299 318.9C150.76 318.9 150.185 322.812 146.678 336.736C142.5 353.32 141.394 362.733 143.129 366.922C146.692 375.523 159.42 368.149 156.231 359.331C155.259 356.643 155.464 354.396 157.469 345.755C158.79 340.06 160.89 330.385 162.135 324.255L164.4 313.11L162.136 308.433C159.199 302.366 156.318 301.179 150.159 303.499C143.028 306.185 121.209 325.982 118.981 331.789C117.138 336.59 117.295 333.183 119.18 327.471C120.247 324.236 121.12 320.816 121.12 319.871C121.12 318.925 121.773 316.3 122.572 314.037C123.845 310.427 125.856 299.626 127.505 287.531C127.896 284.662 127.41 282.432 125.623 278.906C122.241 272.232 118.429 270.972 115.437 275.539ZM372.12 286.543C364.145 287.339 354.633 287.975 350.983 287.956C346.293 287.932 343.984 288.359 343.111 289.411C342.431 290.23 340.771 290.9 339.421 290.9C333.295 290.9 328.527 300.926 333.177 304.028C335.136 305.335 335.16 305.577 333.677 309.118C332.821 311.163 332.12 313.613 332.12 314.563C332.12 315.513 330.917 317.547 329.446 319.082C327.538 321.073 326.82 322.81 326.941 325.137C327.222 330.552 327.214 335.002 326.91 343.4C326.489 355.004 328.598 359.951 335.977 364.671C341.802 368.398 343.252 368.642 353.12 367.561C364.226 366.345 393.086 348.869 394.716 342.373C395.436 339.503 393.744 336.233 391.106 335.396C389.007 334.729 383.494 337.539 380.997 340.548C379.353 342.529 372.555 346.9 371.118 346.9C370.546 346.9 368.399 347.973 366.349 349.284C364.298 350.595 359.639 352.446 355.995 353.398C350.273 354.893 348.983 354.943 346.524 353.765C341.984 351.588 340.93 348.517 341.607 339.443C341.934 335.066 342.296 331.394 342.411 331.282C342.526 331.17 350.495 330.554 360.12 329.914C369.745 329.273 380.77 328.314 384.62 327.783C388.47 327.251 393.643 326.635 396.116 326.413C400.845 325.989 404.12 323.328 404.12 319.912C404.12 315.44 400.201 315.078 365.99 316.384L347.36 317.096L347.821 314.248C348.074 312.682 349.033 309.825 349.951 307.9C350.869 305.975 351.686 304.259 351.766 304.087C351.847 303.915 355.447 302.93 359.766 301.899C367.676 300.011 380.791 298.816 397.867 298.427C407.932 298.197 411.12 296.74 411.12 292.367C411.12 288.968 408.835 287.759 400.68 286.845C396.569 286.384 391.724 285.802 389.913 285.551C388.102 285.301 380.095 285.747 372.12 286.543ZM47.4426 289.446C41.4956 292.536 28.1196 304.325 28.1196 306.476C28.1196 306.831 26.1216 309.98 23.6786 313.474C21.2356 316.968 17.5806 323.106 15.5566 327.114C12.2146 333.728 11.8666 335.184 11.7846 342.9C11.6606 354.67 13.7836 359.183 21.7386 364.057C26.8476 367.188 28.7356 367.747 36.1196 368.32C42.5136 368.816 45.9826 368.585 50.1196 367.39C53.1446 366.517 57.6146 365.372 60.0536 364.847C69.3856 362.836 87.8306 351.835 96.3686 343.185C99.8216 339.687 99.9546 336.238 96.6936 334.752C93.2856 333.199 90.1046 334.263 84.1966 338.933C81.3836 341.157 77.1706 343.993 74.8346 345.235C72.4986 346.477 69.9196 347.912 69.1036 348.424C67.2316 349.598 58.8646 352.661 53.6196 354.092C51.4196 354.692 45.8756 355.136 41.2996 355.08C30.8556 354.95 26.1286 352.614 26.1046 347.568C26.0956 345.826 25.6916 343.773 25.2066 343.006C24.1686 341.367 25.1726 337.99 29.4026 328.9C33.3456 320.426 35.0016 318.22 44.9136 308.246L53.2076 299.9H59.1986C62.9446 299.9 66.0826 300.485 67.5726 301.461C69.8266 302.938 69.9256 303.427 69.3926 310.472C68.7296 319.235 70.1936 321.9 75.6686 321.9C81.0846 321.9 84.7266 317.592 85.5886 310.169C85.9816 306.783 86.0056 302.655 85.6406 300.998C84.1756 294.328 69.8336 285.902 59.9426 285.901C55.3886 285.9 52.9146 286.602 47.4426 289.446ZM619.113 298.437C614.258 301.112 611.365 303.75 605.243 311.089C603.091 313.668 601.097 315.544 600.811 315.258C599.236 313.682 596.114 317.431 594.658 322.647C593.775 325.811 591.471 332.615 589.538 337.766C587.605 342.917 585.76 349.945 585.439 353.383C584.915 358.996 585.148 360.154 587.713 364.717C589.929 368.66 591.48 370.148 594.628 371.35C604.01 374.933 615.026 371.851 627.464 362.163C631.276 359.194 631.646 359.089 631.937 360.893C632.475 364.23 636.91 366.895 642.005 366.944C644.543 366.968 648.469 367.346 650.73 367.784C652.99 368.222 659.515 368.245 665.23 367.835C678.833 366.859 685.303 364.432 690.643 358.3L694.665 353.68V357.896C694.665 364.276 697.682 366.384 708.247 367.387C730.686 369.519 746.287 366.531 752.957 358.825C758.04 352.951 758.165 352.647 757.089 348.749C755.835 344.209 751.347 340.019 745.407 337.844C742.774 336.88 737.245 334.86 733.12 333.355C725.351 330.52 720.12 327.476 720.12 325.792C720.12 323.57 728.968 316.859 734.607 314.803C741.561 312.267 745.608 312.126 748.049 314.336C751.708 317.647 755.774 315.578 757.858 309.345C759.104 305.62 757.506 301.98 753.742 299.965C750.245 298.094 737.223 299.102 730.078 301.798C723.223 304.384 713.194 312.308 710.918 316.938C708.981 320.878 708.605 329.406 710.183 333.585C711.35 336.675 715.806 340.807 718.032 340.864C718.809 340.884 721.381 342.035 723.747 343.422C726.114 344.809 730.991 346.852 734.585 347.962C738.179 349.072 741.12 350.341 741.12 350.782C741.12 352.25 729.736 354.817 720.526 355.425C711.616 356.014 711.399 355.975 709.784 353.51C707.548 350.098 702.227 349.129 698.639 351.479C696.356 352.975 695.813 353.027 695.05 351.821C694.555 351.039 694.144 349.476 694.135 348.346C694.104 344.137 687.752 339.761 674.613 334.897C660.865 329.808 656.617 327.295 657.583 324.825C658.599 322.23 667.242 316.435 673.12 314.408C679.445 312.227 682.742 312.248 685.212 314.484C687.803 316.828 691.26 315.833 693.836 312.002C696.829 307.55 696.718 305.751 693.219 302.006C690.559 299.158 689.786 298.9 683.929 298.9C671.939 298.9 662.211 302.627 653.415 310.592C644.651 318.527 643.549 330.475 650.871 338.15C652.314 339.662 654.303 340.9 655.292 340.9C656.281 340.9 659.284 342.25 661.966 343.9C664.647 345.55 667.382 346.9 668.043 346.9C670.426 346.9 679.089 350.141 678.642 350.865C677.659 352.455 667.177 354.774 658.309 355.363L648.998 355.981L646.158 352.941C643.283 349.863 637.964 348.725 636.62 350.9C635.551 352.63 634.598 352.003 633.376 348.768C632.302 345.922 631.901 345.694 628.99 346.276C627.229 346.628 624.248 348.15 622.366 349.658C616.613 354.269 607.791 358.805 604.481 358.854C602.754 358.879 600.303 358.059 599.033 357.031C596.857 355.269 596.797 354.911 597.982 350.781C598.673 348.371 600.224 344.487 601.428 342.15C603.198 338.712 604.142 337.9 606.364 337.9C610.14 337.9 620.874 334.097 625.12 331.255C627.045 329.967 630.726 326.129 633.301 322.725C638.224 316.218 639.982 310.101 638.659 304.078C637.039 296.7 627.345 293.903 619.113 298.437ZM454.958 301.703C452.943 302.657 449.568 304.902 447.458 306.691C445.347 308.481 441.65 311.522 439.241 313.451L434.862 316.957L433.491 314.314C432.737 312.861 432.087 310.71 432.047 309.536C432.007 308.361 431.186 306.05 430.223 304.4C428.85 302.049 427.661 301.332 424.726 301.085C416.963 300.434 415.736 305.067 420.179 318.27L423.371 327.757L419.496 331.989C417.364 334.317 412.808 339.07 409.37 342.552C405.933 346.034 403.12 349.164 403.12 349.507C403.12 349.85 401.96 351.316 400.543 352.765C395.389 358.033 384.6 370.121 383.809 371.513C382.577 373.681 383.865 376.463 386.696 377.753C389.865 379.197 391.814 378.239 396.282 373.039C398.118 370.903 406.229 362.78 414.306 354.988L428.991 340.82L430.983 345.322C434.146 352.473 441.931 363.9 443.64 363.9C444.499 363.9 446.491 364.854 448.067 366.019C453.843 370.289 464.12 367.766 464.12 362.077C464.12 358.62 462.478 356.901 459.17 356.896C457.767 356.894 455.171 356.009 453.4 354.929C449.751 352.704 444.12 345.436 444.12 342.95C444.12 342.042 443.561 340.741 442.878 340.058C442.196 339.376 441.142 337.148 440.536 335.108C439.436 331.401 439.437 331.398 445.528 325.601C448.879 322.411 454.65 317.794 458.354 315.34C462.058 312.886 465.799 309.793 466.669 308.466C468.111 306.265 468.11 305.782 466.659 302.976C465.374 300.49 464.45 299.907 461.844 299.934C460.071 299.953 456.972 300.749 454.958 301.703ZM487.482 301.4C487.165 302.225 486.025 302.9 484.948 302.9C483.872 302.9 480.882 303.739 478.305 304.763C475.728 305.788 472.294 307.028 470.673 307.519C467.152 308.585 463.68 313.938 464.609 316.867C466.31 322.224 470.952 323.249 478.029 319.83C480.385 318.691 482.565 318.012 482.873 318.32C483.632 319.078 480.266 334.154 479.072 335.348C478.548 335.872 478.12 337.533 478.12 339.041C478.12 340.549 477.67 342.06 477.12 342.4C476.57 342.74 476.12 344.875 476.12 347.145C476.12 351.512 475.05 356.61 469.561 378.4C468.591 382.25 467.306 387.65 466.705 390.4C466.104 393.15 465.243 395.974 464.791 396.676C464.34 397.377 463.717 400.406 463.407 403.407C462.756 409.716 463.959 411.9 468.087 411.9C471.682 411.9 473.701 409.488 475.204 403.4C475.883 400.65 477.267 396.832 478.279 394.915C479.292 392.998 480.12 390.418 480.12 389.181C480.12 387.379 483.05 375.824 486.857 362.615C487.312 361.036 488.081 360.92 493.496 361.615C503.546 362.904 512.244 362.473 516.12 360.496C520.261 358.383 524.971 353.429 525.633 350.49C527.609 341.72 527.829 339.168 527.087 333.623C524.961 317.739 516.044 307.169 501.62 303.435C498.32 302.58 495.47 301.435 495.287 300.891C494.744 299.277 488.131 299.708 487.482 301.4ZM547.018 304.395C544.642 305.686 544.355 306.532 543.727 314.105C542.771 325.631 540.397 340.956 538.773 346.093C538.023 348.462 536.869 353.868 536.207 358.107C534.648 368.096 535.468 369.9 541.566 369.9C545.209 369.9 546.369 369.393 548.489 366.873C550.442 364.552 550.841 363.328 550.2 361.623C549.243 359.078 551.158 353.367 554.796 347.918C556.074 346.003 557.12 344.024 557.12 343.522C557.12 343.019 559.145 340.443 561.62 337.797C564.095 335.151 566.12 332.583 566.12 332.09C566.12 329.129 589.697 314.9 594.604 314.9C596.756 314.9 599.12 311.996 599.12 309.352C599.12 305.318 595.275 303.585 588.929 304.758C583.601 305.743 572.476 311.323 568.556 314.976C567.42 316.034 566.021 316.9 565.446 316.9C564.871 316.9 562.875 318.47 561.01 320.389C559.146 322.308 557.287 323.883 556.881 323.889C556.474 323.895 556.428 319.864 556.778 314.93C557.488 304.937 556.707 302.872 552.248 302.94C550.802 302.962 548.449 303.617 547.018 304.395ZM208.514 312.316C208.215 313.094 206.092 314.986 203.795 316.52C201.499 318.054 198.945 319.772 198.12 320.337C195.943 321.83 199.878 316.953 203.515 313.65C206.761 310.703 209.403 309.998 208.514 312.316ZM624.992 312.65C623.438 314.632 621 316.58 616.801 319.197L613.917 320.994L616.056 317.99C618.703 314.273 622.899 310.9 624.877 310.9C626.15 310.9 626.167 311.153 624.992 312.65ZM502.621 318.9C505.546 318.9 511.092 324.047 513.129 328.652C515.34 333.651 515.717 340.495 513.99 344.285C512.026 348.597 504.53 350.159 494.189 348.412C490.35 347.763 490.326 347.731 491.71 345.078C492.479 343.605 493.11 340.503 493.114 338.185C493.117 335.867 493.832 331.872 494.703 329.307C495.574 326.742 496.047 323.729 495.754 322.61C495.462 321.492 495.668 319.744 496.213 318.726C496.989 317.277 497.615 317.095 499.096 317.887C500.137 318.444 501.723 318.9 502.621 318.9Z" />
<path id="hat" d="M342.575 9.288C343.311 5.363 346.15 3.15799 352.969 1.21599C363.863 -1.88701 390.371 1.25201 403.47 7.19601L408.566 9.508L410.093 6.454C412.402 1.837 417.439 -0.328005 424.058 0.450995C431.328 1.30699 450.908 7.29799 459.742 11.369C480.507 20.94 494.662 36.916 499.605 56.36C503.923 73.348 498.296 87.601 483.24 97.814C467.837 108.262 450.491 113.892 442.759 110.953C440.3 110.018 440.259 110.088 439.576 116.47C438.793 123.781 439.398 135.118 442.187 165.364C443.25 176.894 444.12 189.636 444.12 193.679C444.12 197.723 444.54 201.816 445.053 202.775C445.567 203.734 450.089 207.41 455.103 210.943C463.333 216.742 464.158 217.612 463.589 219.881C463.241 221.264 462.807 222.546 462.624 222.73C462.44 222.913 456.514 222.148 449.455 221.028C388.906 211.427 336.166 214.263 312.72 228.382C309.476 230.336 306.649 231.762 306.438 231.552C306.228 231.341 306.514 202.002 307.075 166.355C307.635 130.707 307.894 101.34 307.65 101.096C307.406 100.852 303.924 99.557 299.913 98.218C283.824 92.846 267.049 82.748 260.985 74.783C254.97 66.884 253.634 62.993 253.643 53.4C253.649 46.087 254.103 43.369 256.063 38.9C261.803 25.809 272.797 12.619 281.693 8.148C297.125 0.392002 316.029 0.944003 335.372 9.715L341.937 12.691L342.575 9.288Z" />
</g>
</svg>
